<svg id="Capa_1" enable-background="new 0 0 506.855 506.855" height="512" viewBox="0 0 506.855 506.855" width="512" xmlns="http://www.w3.org/2000/svg"><path d="m353.052 496.823h-292.43c-11.046 0-20-8.954-20-20v-386.989c0-11.046 8.954-20 20-20h292.431c11.046 0 20 8.954 20 20v386.989c-.001 11.046-8.955 20-20.001 20z" fill="#f2efef"/><path d="m213.277 9.968h-12.88c-33.063 0-59.866 26.803-59.866 59.866h132.612c0-33.063-26.803-59.866-59.866-59.866z" fill="#8aa8bd"/><path d="m96.154 116.146h221.366v89.546h-221.366z" fill="#80b6ff"/><path d="m466.233 433.629h-54.138l27.069 63.095z" fill="#8aa8bd"/><path d="m412.095 339.313v94.316h54.138v-201.798h-54.138v26.541" fill="#ffc144"/><path d="m466.233 188.988c0-14.95-12.119-27.069-27.069-27.069s-27.069 12.119-27.069 27.069v42.843h54.139v-42.843z" fill="#f2efef"/><path d="m353.052 59.866h-70.636c-4.867-33.802-34.01-59.866-69.139-59.866h-12.88c-35.128 0-64.272 26.064-69.139 59.866h-70.636c-16.542 0-30 13.458-30 30v386.989c0 16.542 13.458 30 30 30h292.431c16.542 0 30-13.458 30-30v-386.989c-.001-16.542-13.459-30-30.001-30zm-152.655-39.866h12.88c24.073 0 44.216 17.145 48.859 39.866h-110.598c4.643-22.721 24.786-39.866 48.859-39.866zm152.655 59.866c5.514 0 10 4.486 10 10v386.989c0 5.514-4.486 10-10 10h-292.43c-5.514 0-10-4.486-10-10v-386.989c0-5.514 4.486-10 10-10z"/><path d="m317.52 106.178h-221.366c-5.523 0-10 4.477-10 10v89.546c0 5.523 4.477 10 10 10h221.366c5.523 0 10-4.477 10-10v-89.546c0-5.523-4.477-10-10-10zm-10 89.546h-201.366v-69.546h201.366z"/><path d="m99.147 264.631h107.69c12.84 0 12.859-20 0-20h-107.69c-12.841 0-12.859 20 0 20z"/><path d="m317.52 437.272h-58.193c-12.84 0-12.859 20 0 20h58.193c12.811 0 12.836-20 0-20z"/><path d="m317.52 292.792h-218.373c-12.84 0-12.859 20 0 20h218.373c12.811 0 12.836-20 0-20z"/><path d="m317.52 340.952h-218.373c-12.84 0-12.859 20 0 20h218.373c12.811 0 12.836-20 0-20z"/><path d="m317.52 389.112h-218.373c-12.84 0-12.859 20 0 20h218.373c12.811 0 12.836-20 0-20z"/><path d="m476.233 189.02c0-20.44-16.629-37.069-37.069-37.069s-37.069 16.629-37.069 37.069v69.384c0 12.84 20 12.859 20 0v-16.541h34.139v181.798h-34.139v-84.316c0-12.84-20-12.859-20 0v94.316c0 1.349.81 2.699.81 3.943l27.069 63.096c3.346 7.799 14.993 7.893 18.38 0l27.069-63.096c0-1.243.81-2.594.81-3.943zm-54.139 32.843v-32.843c0-9.412 7.657-17.069 17.069-17.069s17.069 7.657 17.069 17.069v32.843zm17.07 249.53-11.897-27.732h23.795z"/><path d="m402.863 302.58c1.635 3.925 5.708 6.477 9.964 6.148 4.349-.336 8.056-3.521 9.021-7.779 1.973-8.708-8.196-15.526-15.508-10.366-3.773 2.663-5.257 7.724-3.477 11.997z"/><path d="m228.323 443.45c-2.065-5.039-8.04-7.494-13.06-5.41-5.032 2.088-7.497 8.021-5.41 13.06 2.082 5.029 8.031 7.497 13.06 5.41 5.02-2.084 7.504-8.032 5.41-13.06z"/></svg>