<svg height="512" viewBox="0 0 256 256" width="512" xmlns="http://www.w3.org/2000/svg"><path d="m210.9 231.21h-5.461v-44.91h2.461a8 8 0 1 0 0-15.99h-30.26v-19.29h1.549a8 8 0 1 0 0-15.99h-1.549v-25.8h1.549a8 8 0 1 0 0-15.99h-1.619a49.691 49.691 0 0 0 -33.711-44.32l.021-.02-2.49-14.95a3.209 3.209 0 0 0 -3.161-2.67h-20.459a3.21 3.21 0 0 0 -3.161 2.67l-2.489 14.95.02.02a49.657 49.657 0 0 0 -33.71 44.32h-1.62a8 8 0 1 0 0 15.99h1.549v25.8h-1.539a8 8 0 1 0 0 15.99h1.539v19.29h-30.259a8 8 0 1 0 0 15.99h2.46v44.91h-5.46a5 5 0 0 0 -5 5v14.99h175.8v-14.99a5 5 0 0 0 -5-5z" fill="#f2e1d6"/><path d="m78.359 109.23h99.28v6.1h-99.28z" fill="#d6c0b4"/><path d="m78.359 151.02h99.28v6.1h-99.28z" fill="#d6c0b4"/><path d="m50.56 186.3h154.88v6.1h-154.88z" fill="#d6c0b4"/><g fill="#f0c020"><path d="m135.59 109.23h26.87v25.8h-26.87z"/><path d="m93.539 109.23h26.87v25.8h-26.87z"/><path d="m67.26 186.3h29.36v44.91h-29.36z"/><path d="m113.32 186.3h29.36v44.91h-29.36z"/><path d="m159.38 186.3h29.36v44.91h-29.36z"/></g><path d="m36.681 31.282c-17.745 0-32.131 11.569-32.131 25.84 0 12.038 10.239 22.149 24.094 25.02a1.7 1.7 0 0 1 1.37 1.454 22.812 22.812 0 0 0 17.577 19.679 27.146 27.146 0 0 1 -6.523-19.163 1.721 1.721 0 0 1 1.484-1.587c14.94-2.22 26.259-12.746 26.259-25.4 0-14.274-14.385-25.843-32.13-25.843z" fill="#72c1e8"/><path d="m216.557 4.8c-19.27 0-34.891 12.562-34.891 28.059 0 13.745 12.291 25.176 28.515 27.586a1.869 1.869 0 0 1 1.612 1.723 29.481 29.481 0 0 1 -7.084 20.81 24.772 24.772 0 0 0 19.091-21.369 1.846 1.846 0 0 1 1.487-1.579c15.046-3.117 26.164-14.1 26.164-27.17-.003-15.497-15.624-28.06-34.894-28.06z" fill="#72c1e8"/><path d="m56.43 53.111c-2.714-6.081-10.83-10.329-19.75-10.329a2.5 2.5 0 1 1 0-5c10.82 0 20.82 5.466 24.32 13.292a2.5 2.5 0 1 1 -4.566 2.037z" fill="#c5e5ff"/><path d="m239.311 28.154c-2.714-6.081-10.835-10.329-19.749-10.329a2.5 2.5 0 0 1 0-5c10.824 0 20.823 5.466 24.315 13.292a2.5 2.5 0 1 1 -4.566 2.037z" fill="#c5e5ff"/><path d="m218.4 178.3a10.507 10.507 0 0 0 -10.5-10.49h-27.761v-14.338a10.489 10.489 0 0 0 0-20.894v-20.9a10.485 10.485 0 0 0 -.259-20.907 52.554 52.554 0 0 0 -33.771-43.701l-2.255-13.536a5.687 5.687 0 0 0 -5.624-4.754h-7.73v-23.98a2.5 2.5 0 0 0 -5 0v23.98h-7.73a5.69 5.69 0 0 0 -5.626 4.76l-2.254 13.53a51.8 51.8 0 0 0 -33.774 43.705 10.485 10.485 0 0 0 -.257 20.907v20.9a10.488 10.488 0 0 0 0 20.892v14.336h-27.759a10.494 10.494 0 0 0 -.04 20.988v39.912h-2.96a7.508 7.508 0 0 0 -7.5 7.5v14.99a2.5 2.5 0 0 0 5 0v-14.99a2.5 2.5 0 0 1 2.5-2.5h165.8a2.5 2.5 0 0 1 2.5 2.5v14.99a2.5 2.5 0 0 0 5 0v-14.99a7.508 7.508 0 0 0 -7.5-7.5h-2.96v-39.91a10.511 10.511 0 0 0 10.46-10.5zm-80.311-45.77v-20.8h21.87v20.8zm-42.049 0v-20.8h21.87v20.8zm-15.181-20.8h10.181v20.8h-10.181zm42.051 0h10.179v20.8h-10.179zm42.049 0h10.18v20.8h-10.18zm9.9-20.99h-26.432c-.661-17.632-4.632-32.9-10.5-40.853a47.375 47.375 0 0 1 36.927 40.853zm-50.918-39.988c2.658-2.468 5.3-2.622 8.114 0 6.175 5.717 10.648 21.593 11.365 39.986h-30.846c.715-18.378 5.19-34.255 11.367-39.986zm-6.867-16.385a.712.712 0 0 1 .7-.587h20.46a.709.709 0 0 1 .693.581l1.835 11.039a52.842 52.842 0 0 0 -25.526 0zm1 15.522c-5.875 7.956-9.845 23.229-10.5 40.851h-26.433a46.893 46.893 0 0 1 36.936-40.851zm-46.764 51.351a5.506 5.506 0 0 1 5.5-5.5h102.38a5.5 5.5 0 1 1 0 10.99h-102.38a5.5 5.5 0 0 1 -5.5-5.49zm0 41.78a5.506 5.506 0 0 1 5.509-5.49h102.371a5.5 5.5 0 1 1 0 10.99h-102.371a5.51 5.51 0 0 1 -5.509-5.5zm9.549 10.5h94.28v14.29h-94.28zm-38.259 24.78a5.5 5.5 0 0 1 5.5-5.49h159.8a5.5 5.5 0 1 1 0 10.99h-159.8a5.506 5.506 0 0 1 -5.5-5.5zm143.64 10.5v39.91h-24.361v-39.91zm-92.12 0v39.91h-24.361v-39.91zm-41.06 39.91v-39.91h11.7v39.91zm46.06 0v-39.91h11.7v39.91zm46.059 0v-9.89a2.5 2.5 0 0 0 -5 0v9.89h-24.36v-39.91h24.36v10.02a2.5 2.5 0 0 0 5 0v-10.02h11.7v39.91zm46.061 0v-39.91h11.7v39.91z"/><path d="m96.061 78.285a2.505 2.505 0 0 0 -2.888 2.04l-.457 2.656a2.5 2.5 0 1 0 4.928.848l.457-2.656a2.5 2.5 0 0 0 -2.04-2.888z"/><path d="m128 85.905a2.5 2.5 0 0 0 2.5-2.5v-2.656a2.5 2.5 0 0 0 -5 0v2.656a2.5 2.5 0 0 0 2.5 2.5z"/><path d="m158.356 83.83a2.5 2.5 0 1 0 4.928-.85l-.458-2.656a2.5 2.5 0 1 0 -4.928.85z"/><circle cx="142.679" cy="208.82" r="2.5"/><path d="m49.489 101.648a24.786 24.786 0 0 1 -5.955-16.748c16.133-2.641 27.777-14.243 27.777-27.78 0-15.626-15.535-28.339-34.63-28.339s-34.631 12.719-34.631 28.341c0 12.84 10.48 24.024 25.554 27.354a25.283 25.283 0 0 0 19.434 21.237 2.5 2.5 0 0 0 2.451-4.065zm-8.323-3.867a20.294 20.294 0 0 1 -8.666-14.462 4.2 4.2 0 0 0 -3.348-3.626c-13.013-2.693-22.102-11.977-22.102-22.571 0-12.869 13.292-23.339 29.631-23.339s29.63 10.47 29.63 23.339c0 11.21-10.147 20.854-24.126 22.93a4.243 4.243 0 0 0 -3.613 3.91 29.655 29.655 0 0 0 2.594 13.819z"/><path d="m49.119 60.36a2.5 2.5 0 0 0 2.5-2.5v-1.28a2.5 2.5 0 0 0 -5 0v1.28a2.508 2.508 0 0 0 2.5 2.5z"/><path d="m38.949 56.58a2.5 2.5 0 0 0 -5 0v1.28a2.5 2.5 0 0 0 5 0z"/><path d="m23.77 54.08a2.507 2.507 0 0 0 -2.5 2.5v1.28a2.5 2.5 0 0 0 5 0v-1.28a2.508 2.508 0 0 0 -2.5-2.5z"/><path d="m245.3 13.29a2.565 2.565 0 0 0 -3.54.04 2.5 2.5 0 0 0 .04 3.53c4.67 4.6 7.151 10.13 7.151 16 .05 11.58-9.891 21.75-24.17 24.72a4.344 4.344 0 0 0 -3.471 3.75 22.138 22.138 0 0 1 -10.12 16.27 31.891 31.891 0 0 0 3.1-15.58 4.4 4.4 0 0 0 -3.741-4.05c-14.471-2.129-26.38-12.238-26.38-25.11 0-14.145 14.606-25.56 32.371-25.56h.019a40.514 40.514 0 0 1 8.971 1 2.524 2.524 0 0 0 2.989-1.89 2.491 2.491 0 0 0 -1.88-2.99 45.725 45.725 0 0 0 -10.08-1.12c-20.464 0-37.39 13.461-37.39 30.56-.02 15.254 13.428 27.312 30.15 29.98a27.087 27.087 0 0 1 -6.51 18.51 2.506 2.506 0 0 0 2.45 4.07 27.256 27.256 0 0 0 20.96-23.03c15.146-3.291 27.666-14.615 27.731-29.53a27.441 27.441 0 0 0 -8.65-19.57z"/><path d="m234.309 11.49a2.5 2.5 0 1 0 -1.069-3.37 2.49 2.49 0 0 0 1.069 3.37z"/><path d="m200.549 32.28v1.38a2.5 2.5 0 1 0 5 0v-1.38a2.5 2.5 0 0 0 -5 0z"/><path d="m214.309 32.28v1.38a2.5 2.5 0 1 0 5 0v-1.38a2.5 2.5 0 0 0 -5 0z"/><path d="m228.08 33.67a2.5 2.5 0 0 0 5 0v-1.39a2.5 2.5 0 0 0 -5 0z"/><path d="m205.439 245.833h-5.439a2.5 2.5 0 0 1 0-5h5.439a2.5 2.5 0 0 1 0 5zm-15.439 0h-137a2.5 2.5 0 1 1 0-5h137a2.5 2.5 0 0 1 0 5z" fill="#fff"/></svg>